<?xml version="1.0" encoding="iso-8859-1"?>
<!-- Generator: Adobe Illustrator 16.0.0, SVG Export Plug-In . SVG Version: 6.00 Build 0)  -->
<!DOCTYPE svg PUBLIC "-//W3C//DTD SVG 1.1//EN" "http://www.w3.org/Graphics/SVG/1.1/DTD/svg11.dtd">
<svg version="1.1" id="Capa_1" xmlns="http://www.w3.org/2000/svg" xmlns:xlink="http://www.w3.org/1999/xlink" x="0px" y="0px"
	 width="331.494px" height="331.495px" viewBox="0 0 331.494 331.495" style="enable-background:new 0 0 331.494 331.495;"
	 xml:space="preserve">
<g>
	<g>
		<path d="M28.673,174.026c0-3.746-1.874-5.634-5.635-5.634H6.138c-3.759,0-5.639,1.888-5.639,5.634v16.912
			c0,3.759,1.872,5.634,5.639,5.634h16.901c3.753,0,5.635-1.863,5.635-5.634V174.026z"/>
		<path d="M197.404,106.736c0-3.761-1.888-5.639-5.635-5.639h-16.905c-3.761,0-5.635,1.877-5.635,5.639v16.899
			c0,3.769,1.874,5.638,5.635,5.638h16.905c3.763,0,5.635-1.87,5.635-5.638V106.736z"/>
		<path d="M23.039,236.017H6.138c-3.759,0-5.639,1.872-5.639,5.635v16.903c0,3.759,1.872,5.643,5.639,5.643h16.901
			c3.753,0,5.635-1.876,5.635-5.643v-16.903C28.673,237.905,26.8,236.017,23.039,236.017z"/>
		<path d="M28.673,207.837c0-3.751-1.874-5.631-5.635-5.631H6.138c-3.759,0-5.639,1.871-5.639,5.631v16.903
			c0,3.763,1.872,5.634,5.639,5.634h16.901c3.753,0,5.635-1.863,5.635-5.634V207.837z"/>
		<path d="M28.673,39.443c0-3.745-1.874-5.63-5.635-5.63H6.138c-3.759,0-5.639,1.877-5.639,5.63v16.579
			c0,3.753,1.872,5.626,5.639,5.626h16.901c3.753,0,5.635-1.865,5.635-5.626V39.443z"/>
		<path d="M28.673,5.638C28.673,1.877,26.8,0,23.039,0H6.138C2.378,0,0.499,1.877,0.499,5.638V22.54
			c0,3.767,1.872,5.639,5.639,5.639h16.901c3.753,0,5.635-1.872,5.635-5.639V5.638z"/>
		<path d="M191.108,202.207h-16.912c-3.761,0-5.634,1.88-5.634,5.643v16.899c0,3.763,1.874,5.643,5.634,5.643h16.912
			c3.751,0,5.634-1.872,5.634-5.643v-16.899C196.742,204.086,194.859,202.207,191.108,202.207z"/>
		<path d="M196.742,174.026c0-3.746-1.883-5.634-5.634-5.634h-16.912c-3.761,0-5.634,1.888-5.634,5.634v16.912
			c0,3.759,1.874,5.634,5.634,5.634h16.912c3.751,0,5.634-1.863,5.634-5.634V174.026z"/>
		<path d="M62.149,174.026c0-3.746-1.876-5.634-5.635-5.634H39.94c-3.753,0-5.636,1.888-5.636,5.634v16.912
			c0,3.759,1.875,5.634,5.636,5.634h16.575c3.759,0,5.635-1.863,5.635-5.634V174.026z"/>
		<path d="M196.742,140.556c0-3.761-1.883-5.646-5.634-5.646h-16.912c-3.761,0-5.634,1.886-5.634,5.646v16.899
			c0,3.761,1.874,5.63,5.634,5.63h16.912c3.751,0,5.634-1.87,5.634-5.63V140.556z"/>
		<path d="M168.562,89.834c0,3.761,1.874,5.634,5.634,5.634h16.912c3.751,0,5.634-1.874,5.634-5.634V72.931
			c0-3.761-1.883-5.637-5.634-5.637h-16.912c-3.761,0-5.634,1.875-5.634,5.637V89.834z"/>
		<path d="M28.673,72.931c0-3.761-1.874-5.637-5.635-5.637H6.138c-3.759,0-5.639,1.875-5.639,5.637v16.903
			c0,3.761,1.872,5.634,5.639,5.634h16.901c3.753,0,5.635-1.874,5.635-5.634V72.931z"/>
		<path d="M28.673,140.556c0-3.761-1.874-5.646-5.635-5.646H6.138c-3.759,0-5.639,1.886-5.639,5.646v16.899
			c0,3.761,1.872,5.63,5.639,5.63h16.901c3.753,0,5.635-1.87,5.635-5.63V140.556z"/>
		<path d="M174.197,61.648h16.912c3.751,0,5.634-1.865,5.634-5.626V39.443c0-3.745-1.883-5.63-5.634-5.63h-16.912
			c-3.761,0-5.634,1.877-5.634,5.63v16.579C168.562,59.783,170.436,61.648,174.197,61.648z"/>
		<path d="M28.673,106.736c0-3.761-1.874-5.639-5.635-5.639H6.138c-3.759,0-5.639,1.877-5.639,5.639v16.899
			c0,3.769,1.872,5.638,5.639,5.638h16.901c3.753,0,5.635-1.87,5.635-5.638V106.736z"/>
		<path d="M162.924,5.638c0-3.761-1.875-5.638-5.636-5.638h-16.903c-3.539,0-5.306,1.877-5.306,5.638V22.54
			c0,3.767,1.768,5.639,5.306,5.639h16.903c3.761,0,5.636-1.872,5.636-5.639V5.638z"/>
		<path d="M62.149,106.736c0-3.761-1.876-5.639-5.635-5.639H39.94c-3.753,0-5.636,1.877-5.636,5.639v16.899
			c0,3.769,1.875,5.638,5.636,5.638h16.575c3.759,0,5.635-1.87,5.635-5.638V106.736z"/>
		<path d="M62.149,72.931c0-3.761-1.876-5.637-5.635-5.637H39.94c-3.753,0-5.636,1.875-5.636,5.637v16.903
			c0,3.761,1.875,5.634,5.636,5.634h16.575c3.759,0,5.635-1.874,5.635-5.634V72.931z"/>
		<path d="M62.149,39.443c0-3.745-1.876-5.63-5.635-5.63H39.94c-3.753,0-5.636,1.877-5.636,5.63v16.579
			c0,3.753,1.875,5.626,5.636,5.626h16.575c3.759,0,5.635-1.865,5.635-5.626V39.443z"/>
		<path d="M56.521,236.017H39.946c-3.753,0-5.635,1.872-5.635,5.635v16.903c0,3.759,1.875,5.643,5.635,5.643h16.574
			c3.761,0,5.637-1.876,5.637-5.643v-16.903C62.149,237.905,60.273,236.017,56.521,236.017z"/>
		<path d="M123.813,236.017h-16.909c-3.759,0-5.639,1.872-5.639,5.635v16.903c0,3.759,1.879,5.643,5.639,5.643h16.909
			c3.753,0,5.626-1.876,5.626-5.643v-16.903C129.44,237.905,127.566,236.017,123.813,236.017z"/>
		<path d="M90.33,236.017H73.43c-3.761,0-5.634,1.872-5.634,5.635v16.903c0,3.759,1.873,5.643,5.634,5.643H90.33
			c3.761,0,5.638-1.876,5.638-5.643v-16.903C95.968,237.905,94.083,236.017,90.33,236.017z"/>
		<path d="M62.149,207.837c0-3.751-1.876-5.631-5.635-5.631H39.94c-3.753,0-5.636,1.871-5.636,5.631v16.903
			c0,3.763,1.875,5.634,5.636,5.634h16.575c3.759,0,5.635-1.863,5.635-5.634V207.837z"/>
		<path d="M129.44,5.638c0-3.761-1.874-5.638-5.626-5.638h-16.909c-3.759,0-5.639,1.877-5.639,5.638V22.54
			c0,3.767,1.879,5.639,5.639,5.639h16.909c3.753,0,5.626-1.872,5.626-5.639V5.638z"/>
		<path d="M95.968,5.638C95.968,1.877,94.09,0,90.33,0H73.43c-3.761,0-5.634,1.877-5.634,5.638V22.54
			c0,3.767,1.873,5.639,5.634,5.639H90.33c3.761,0,5.638-1.872,5.638-5.639V5.638z"/>
		<path d="M62.149,140.556c0-3.761-1.876-5.646-5.635-5.646H39.94c-3.753,0-5.636,1.886-5.636,5.646v16.899
			c0,3.761,1.875,5.63,5.636,5.63h16.575c3.759,0,5.635-1.87,5.635-5.63V140.556z"/>
		<path d="M62.149,5.638C62.149,1.877,60.273,0,56.515,0H39.94c-3.753,0-5.636,1.877-5.636,5.638V22.54
			c0,3.767,1.875,5.639,5.636,5.639h16.575c3.759,0,5.635-1.872,5.635-5.639V5.638z"/>
		<path d="M157.288,236.017h-16.903c-3.539,0-5.306,1.872-5.306,5.635v16.903c0,3.759,1.768,5.643,5.306,5.643h16.903
			c3.761,0,5.636-1.876,5.636-5.643v-16.903C162.924,237.905,161.048,236.017,157.288,236.017z"/>
		<path d="M162.924,174.026c0-3.746-1.875-5.634-5.636-5.634h-16.903c-3.539,0-5.306,1.888-5.306,5.634v16.912
			c0,3.759,1.768,5.634,5.306,5.634h16.903c3.761,0,5.636-1.863,5.636-5.634V174.026z"/>
		<path d="M162.924,140.556c0-3.761-1.875-5.646-5.636-5.646h-16.903c-3.539,0-5.306,1.886-5.306,5.646v16.899
			c0,3.761,1.768,5.63,5.306,5.63h16.903c3.761,0,5.636-1.87,5.636-5.63V140.556z"/>
		<path d="M162.924,207.837c0-3.751-1.875-5.631-5.636-5.631h-16.903c-3.539,0-5.306,1.871-5.306,5.631v16.903
			c0,3.763,1.768,5.634,5.306,5.634h16.903c3.761,0,5.636-1.863,5.636-5.634V207.837z"/>
		<path d="M162.924,39.443c0-3.745-1.875-5.63-5.636-5.63h-16.903c-3.539,0-5.306,1.877-5.306,5.63v16.579
			c0,3.753,1.768,5.626,5.306,5.626h16.903c3.761,0,5.636-1.865,5.636-5.626V39.443z"/>
		<path d="M162.924,72.931c0-3.761-1.875-5.637-5.636-5.637h-16.903c-3.539,0-5.306,1.875-5.306,5.637v16.903
			c0,3.761,1.768,5.634,5.306,5.634h16.903c3.761,0,5.636-1.874,5.636-5.634V72.931z"/>
		<path d="M162.924,106.736c0-3.761-1.875-5.639-5.636-5.639h-16.903c-3.539,0-5.306,1.877-5.306,5.639v16.899
			c0,3.769,1.768,5.638,5.306,5.638h16.903c3.761,0,5.636-1.87,5.636-5.638V106.736z"/>
		<path d="M241.493,303.314c-3.767,0-5.634,1.876-5.634,5.643v16.896c0,3.763,1.867,5.643,5.634,5.643h16.903
			c3.756,0,5.643-1.88,5.643-5.643v-16.896c0-3.767-1.887-5.643-5.643-5.643H241.493z"/>
		<path d="M308.441,297.679h16.903c3.768,0,5.639-1.879,5.639-5.638v-16.575c0-3.755-1.871-5.635-5.639-5.635h-16.903
			c-3.755,0-5.626,1.872-5.626,5.635v16.575C302.815,295.8,304.687,297.679,308.441,297.679z"/>
		<path d="M330.995,241.652c0-3.763-1.883-5.635-5.642-5.635h-16.896c-3.764,0-5.643,1.872-5.643,5.635v16.903
			c0,3.759,1.879,5.643,5.643,5.643h16.896c3.759,0,5.642-1.876,5.642-5.643V241.652z"/>
		<path d="M330.995,207.837c0-3.751-1.883-5.631-5.642-5.631h-16.896c-3.764,0-5.643,1.871-5.643,5.631v16.903
			c0,3.763,1.879,5.634,5.643,5.634h16.896c3.759,0,5.642-1.863,5.642-5.634V207.837z"/>
		<path d="M330.995,39.443c0-3.745-1.883-5.63-5.642-5.63h-16.896c-3.764,0-5.643,1.877-5.643,5.63v16.579
			c0,3.753,1.879,5.626,5.643,5.626h16.896c3.759,0,5.642-1.865,5.642-5.626V39.443z"/>
		<path d="M330.995,5.638c0-3.761-1.883-5.638-5.642-5.638h-16.896c-3.764,0-5.643,1.877-5.643,5.638V22.54
			c0,3.767,1.879,5.639,5.643,5.639h16.896c3.759,0,5.642-1.872,5.642-5.639V5.638z"/>
		<path d="M330.995,174.026c0-3.746-1.883-5.634-5.642-5.634h-16.896c-3.764,0-5.643,1.888-5.643,5.634v16.912
			c0,3.759,1.879,5.634,5.643,5.634h16.896c3.759,0,5.642-1.863,5.642-5.634V174.026z"/>
		<path d="M274.635,28.178h16.903c3.763,0,5.635-1.872,5.635-5.639V5.638c0-3.761-1.872-5.638-5.635-5.638h-16.903
			c-3.542,0-5.306,1.877-5.306,5.638V22.54C269.337,26.298,271.108,28.178,274.635,28.178z"/>
		<path d="M330.995,72.931c0-3.761-1.883-5.637-5.642-5.637h-16.896c-3.764,0-5.643,1.875-5.643,5.637v16.903
			c0,3.761,1.879,5.634,5.643,5.634h16.896c3.759,0,5.642-1.874,5.642-5.634V72.931z"/>
		<path d="M330.995,140.556c0-3.761-1.883-5.646-5.642-5.646h-16.896c-3.764,0-5.643,1.886-5.643,5.646v16.899
			c0,3.761,1.879,5.63,5.643,5.63h16.896c3.759,0,5.642-1.87,5.642-5.63V140.556z"/>
		<path d="M275.3,331.478h16.912c3.534,0,5.298-1.871,5.298-5.626V308.94c0-3.759-1.764-5.626-5.298-5.626H275.3
			c-3.763,0-5.634,1.867-5.634,5.626v16.912C269.666,329.607,271.537,331.478,275.3,331.478z"/>
		<path d="M330.995,106.736c0-3.761-1.883-5.639-5.642-5.639h-16.896c-3.764,0-5.643,1.877-5.643,5.639v16.899
			c0,3.769,1.879,5.638,5.643,5.638h16.896c3.759,0,5.642-1.87,5.642-5.638V106.736z"/>
		<path d="M269.337,56.03c0,3.753,1.771,5.626,5.306,5.626h16.904c3.754,0,5.634-1.866,5.634-5.626V39.451
			c0-3.745-1.88-5.63-5.634-5.63h-16.904c-3.534,0-5.306,1.877-5.306,5.63V56.03z"/>
		<path d="M269.337,258.555c0,3.759,1.771,5.643,5.306,5.643h16.904c3.754,0,5.634-1.876,5.634-5.643v-16.903
			c0-3.763-1.88-5.635-5.634-5.635h-16.904c-3.534,0-5.306,1.872-5.306,5.635V258.555z"/>
		<path d="M269.337,292.042c0,3.759,1.771,5.638,5.306,5.638h16.904c3.754,0,5.634-1.879,5.634-5.638v-16.575
			c0-3.755-1.88-5.635-5.634-5.635h-16.904c-3.534,0-5.306,1.872-5.306,5.635V292.042z"/>
		<path d="M269.337,224.749c0,3.763,1.771,5.643,5.306,5.643h16.904c3.754,0,5.634-1.872,5.634-5.643v-16.899
			c0-3.755-1.88-5.643-5.634-5.643h-16.904c-3.534,0-5.306,1.88-5.306,5.643V224.749z"/>
		<path d="M269.337,89.834c0,3.761,1.771,5.634,5.306,5.634h16.904c3.754,0,5.634-1.874,5.634-5.634V72.931
			c0-3.761-1.88-5.637-5.634-5.637h-16.904c-3.534,0-5.306,1.875-5.306,5.637V89.834z"/>
		<path d="M269.337,190.938c0,3.759,1.771,5.634,5.306,5.634h16.904c3.754,0,5.634-1.863,5.634-5.634v-16.912
			c0-3.746-1.88-5.634-5.634-5.634h-16.904c-3.534,0-5.306,1.888-5.306,5.634V190.938z"/>
		<path d="M269.337,123.643c0,3.769,1.771,5.638,5.306,5.638h16.904c3.754,0,5.634-1.869,5.634-5.638v-16.901
			c0-3.759-1.88-5.635-5.634-5.635h-16.904c-3.534,0-5.306,1.876-5.306,5.635V123.643z"/>
		<path d="M269.337,157.456c0,3.761,1.771,5.63,5.306,5.63h16.904c3.754,0,5.634-1.87,5.634-5.63v-16.899
			c0-3.761-1.88-5.646-5.634-5.646h-16.904c-3.534,0-5.306,1.886-5.306,5.646V157.456z"/>
	</g>
</g>
<g>
</g>
<g>
</g>
<g>
</g>
<g>
</g>
<g>
</g>
<g>
</g>
<g>
</g>
<g>
</g>
<g>
</g>
<g>
</g>
<g>
</g>
<g>
</g>
<g>
</g>
<g>
</g>
<g>
</g>
</svg>
